# This file uses centimeters as units for non-parametric coordinates.

mtllib Lamp.mtl
g default
v -0.024911 0.001642 0.024911
v 0.024911 0.001642 0.024911
v -0.009749 0.105505 0.009749
v 0.009749 0.105505 0.009749
v -0.009749 0.105505 -0.009749
v 0.009749 0.105505 -0.009749
v -0.024911 0.001642 -0.024911
v 0.024911 0.001642 -0.024911
v -0.018748 0.011669 0.018748
v 0.018748 0.011669 0.018748
v 0.018748 0.011669 -0.018748
v -0.018748 0.011669 -0.018748
v -0.009633 0.017647 -0.009633
v 0.009633 0.017647 -0.009633
v 0.009633 0.017647 0.009633
v -0.009633 0.017647 0.009633
v -0.055352 0.089334 0.055352
v 0.055352 0.089334 0.055352
v 0.055352 0.089334 -0.055352
v -0.055352 0.089334 -0.055352
v -0.018609 0.183579 0.018609
v 0.018609 0.183579 0.018609
v 0.018609 0.183579 -0.018609
v -0.018609 0.183579 -0.018609
vt 0.375000 0.000000
vt 0.625000 0.000000
vt 0.375000 0.250000
vt 0.625000 0.250000
vt 0.375000 0.500000
vt 0.625000 0.500000
vt 0.375000 0.750000
vt 0.625000 0.750000
vt 0.375000 1.000000
vt 0.625000 1.000000
vt 0.875000 0.000000
vt 0.875000 0.250000
vt 0.125000 0.000000
vt 0.125000 0.250000
vt 0.375000 0.024158
vt 0.625000 0.024158
vt 0.625000 0.725842
vt 0.875000 0.024158
vt 0.125000 0.024158
vt 0.375000 0.725842
vt 0.125000 0.038560
vt 0.375000 0.711440
vt 0.625000 0.711440
vt 0.875000 0.038560
vt 0.625000 0.038560
vt 0.375000 0.038560
vt 0.375000 0.250000
vt 0.625000 0.250000
vt 0.625000 0.500000
vt 0.375000 0.500000
vt 0.375000 0.250000
vt 0.625000 0.250000
vt 0.625000 0.500000
vt 0.375000 0.500000
vn 0.000000 0.584326 0.811519
vn 0.000000 0.584326 0.811519
vn 0.000000 0.192394 0.981318
vn 0.000000 0.192394 0.981318
vn 0.000000 1.000000 0.000000
vn 0.000000 1.000000 0.000000
vn 0.000000 1.000000 0.000000
vn 0.000000 1.000000 0.000000
vn 0.000000 0.192394 -0.981318
vn 0.000000 0.192394 -0.981318
vn 0.000000 0.584328 -0.811518
vn 0.000000 0.584328 -0.811518
vn 0.000000 -1.000000 0.000000
vn 0.000000 -1.000000 0.000000
vn 0.000000 -1.000000 0.000000
vn 0.000000 -1.000000 0.000000
vn 0.811518 0.584327 -0.000001
vn 0.811518 0.584327 -0.000001
vn 0.981318 0.192394 -0.000000
vn 0.981318 0.192394 -0.000000
vn -0.811518 0.584327 -0.000001
vn -0.811518 0.584327 -0.000001
vn -0.981318 0.192394 -0.000000
vn -0.981318 0.192394 -0.000000
vn 0.000000 0.523627 0.851947
vn 0.000000 0.523627 0.851947
vn 0.851947 0.523628 -0.000000
vn 0.851947 0.523629 -0.000000
vn 0.000000 0.523629 -0.851946
vn 0.000000 0.523629 -0.851946
vn -0.851947 0.523629 -0.000000
vn -0.851947 0.523628 -0.000000
vn 0.000000 -0.001314 -0.999999
vn 0.000000 -0.001314 -0.999999
vn 0.999999 -0.001314 0.000000
vn 0.999999 -0.001314 0.000000
vn 0.000000 -0.001314 0.999999
vn 0.000000 -0.001314 0.999999
vn -0.999999 -0.001314 0.000000
vn -0.999999 -0.001314 0.000000
vn 0.000000 0.942498 0.334213
vn 0.000000 0.942498 0.334213
vn 0.000000 0.942498 0.334213
vn 0.000000 0.942498 0.334213
vn 0.334213 0.942498 0.000000
vn 0.334213 0.942498 0.000000
vn 0.334213 0.942498 0.000000
vn 0.334213 0.942498 0.000000
vn 0.000000 0.942498 -0.334213
vn 0.000000 0.942498 -0.334213
vn 0.000000 0.942498 -0.334213
vn 0.000000 0.942498 -0.334213
vn -0.334213 0.942498 0.000000
vn -0.334213 0.942498 0.000000
vn -0.334213 0.942498 0.000000
vn -0.334213 0.942498 0.000000
vn 0.000000 0.363237 0.931697
vn 0.000000 0.363237 0.931697
vn 0.000000 0.363237 0.931697
vn 0.000000 0.363237 0.931697
vn 0.931697 0.363237 0.000000
vn 0.931697 0.363237 0.000000
vn 0.931697 0.363237 0.000000
vn 0.931697 0.363237 0.000000
vn 0.000000 0.363237 -0.931697
vn 0.000000 0.363237 -0.931697
vn 0.000000 0.363237 -0.931697
vn 0.000000 0.363237 -0.931697
vn -0.931697 0.363237 0.000000
vn -0.931697 0.363237 0.000000
vn -0.931697 0.363237 0.000000
vn -0.931697 0.363237 0.000000
s 1
g pCube1
usemtl initialShadingGroup
f 9/15/1 10/16/2 15/25/3 16/26/4
s off
f 21/31/5 22/32/6 23/33/7 24/34/8
s 2
f 13/22/9 14/23/10 11/17/11 12/20/12
s off
f 7/7/13 8/8/14 2/10/15 1/9/16
s 3
f 10/16/17 11/18/18 14/24/19 15/25/20
s 4
f 12/19/21 9/15/22 16/26/23 13/21/24
s 1
f 1/1/25 2/2/26 10/16/2 9/15/1
s 3
f 2/2/27 8/11/28 11/18/18 10/16/17
s 2
f 12/20/12 11/17/11 8/8/29 7/7/30
s 4
f 7/13/31 1/1/32 9/15/22 12/19/21
s 2
f 5/5/33 6/6/34 14/23/10 13/22/9
s 3
f 15/25/20 14/24/19 6/12/35 4/4/36
s 1
f 16/26/4 15/25/3 4/4/37 3/3/38
s 4
f 13/21/24 16/26/23 3/3/39 5/14/40
s off
f 3/3/41 17/27/42 18/28/43 4/4/44
f 4/4/45 18/28/46 19/29/47 6/6/48
f 6/6/49 19/29/50 20/30/51 5/5/52
f 5/5/53 20/30/54 17/27/55 3/3/56
f 17/27/57 18/28/58 22/32/59 21/31/60
f 18/28/61 19/29/62 23/33/63 22/32/64
f 19/29/65 20/30/66 24/34/67 23/33/68
f 20/30/69 17/27/70 21/31/71 24/34/72
