# This file uses centimeters as units for non-parametric coordinates.

mtllib Desk.mtl
g default
v -0.563394 0.824461 1.132764
v 0.563394 0.824461 1.132764
v -0.563394 0.856290 1.132764
v 0.563394 0.856290 1.132764
v -0.563394 0.856290 -1.132764
v 0.563394 0.856290 -1.132764
v -0.563394 0.824461 -1.132764
v 0.563394 0.824461 -1.132764
v -0.531973 0.824461 1.132764
v -0.531973 0.824461 -1.132764
v -0.531973 0.856290 -1.132764
v -0.531973 0.856290 1.132764
v 0.520942 0.824461 1.132764
v 0.520942 0.856290 1.132764
v 0.520942 0.856290 -1.132764
v 0.520942 0.824461 -1.132764
v -0.563394 0.856290 1.107444
v -0.531973 0.856290 1.107444
v 0.520942 0.856290 1.107444
v 0.563394 0.856290 1.107444
v 0.563394 0.824461 1.107444
v 0.520942 0.824461 1.107444
v -0.531973 0.824461 1.107444
v -0.563394 0.824461 1.107444
v -0.563394 0.824461 0.181385
v -0.531973 0.824461 0.181385
v 0.520942 0.824461 0.181385
v 0.563394 0.824461 0.181385
v 0.563394 0.856290 0.181385
v 0.520942 0.856290 0.181385
v -0.531973 0.856290 0.181385
v -0.563394 0.856290 0.181385
v -0.563394 0.824461 -1.103954
v -0.531973 0.824461 -1.103955
v 0.520942 0.824461 -1.103954
v 0.563394 0.824461 -1.103954
v 0.563394 0.856290 -1.103955
v 0.520942 0.856290 -1.103955
v -0.531973 0.856290 -1.103954
v -0.563394 0.856290 -1.103955
v -0.531973 0.824461 -1.074476
v -0.563394 0.824461 -1.074475
v -0.563394 0.856290 -1.074476
v -0.531973 0.856290 -1.074475
v 0.520942 0.856290 -1.074476
v 0.563394 0.856290 -1.074476
v 0.563394 0.824461 -1.074475
v 0.520942 0.824461 -1.074475
v 0.520942 0.184816 1.107444
v -0.531973 0.184816 1.107444
v -0.531973 0.184816 0.181384
v 0.520942 0.184816 0.181385
v 0.520942 0.184816 -1.074475
v -0.531973 0.184816 -1.074476
v -0.531973 0.184816 -1.103955
v 0.520942 0.184816 -1.103954
vt 0.375000 0.000000
vt 0.625000 0.000000
vt 0.375000 0.250000
vt 0.625000 0.250000
vt 0.375000 0.500000
vt 0.625000 0.500000
vt 0.375000 0.750000
vt 0.625000 0.750000
vt 0.375000 1.000000
vt 0.625000 1.000000
vt 0.875000 0.000000
vt 0.875000 0.250000
vt 0.125000 0.000000
vt 0.125000 0.250000
vt 0.381971 0.000000
vt 0.381971 1.000000
vt 0.381971 0.750000
vt 0.381971 0.500000
vt 0.381971 0.250000
vt 0.615581 0.000000
vt 0.615581 1.000000
vt 0.615581 0.250000
vt 0.615581 0.500000
vt 0.615581 0.750000
vt 0.372206 0.250000
vt 0.375000 0.252794
vt 0.381971 0.252794
vt 0.615581 0.252794
vt 0.625000 0.252794
vt 0.627794 0.250000
vt 0.625000 0.997206
vt 0.627794 0.000000
vt 0.615581 0.997206
vt 0.381971 0.997206
vt 0.372206 0.000000
vt 0.375000 0.997206
vt 0.270016 0.000000
vt 0.375000 0.895016
vt 0.381971 0.895016
vt 0.615581 0.895016
vt 0.625000 0.895016
vt 0.729984 0.000000
vt 0.625000 0.354984
vt 0.729984 0.250000
vt 0.615581 0.354984
vt 0.381971 0.354984
vt 0.270016 0.250000
vt 0.375000 0.354984
vt 0.128179 0.000000
vt 0.375000 0.753179
vt 0.381971 0.753179
vt 0.615581 0.753179
vt 0.625000 0.753179
vt 0.871821 0.000000
vt 0.625000 0.496821
vt 0.871821 0.250000
vt 0.615581 0.496821
vt 0.381971 0.496821
vt 0.128179 0.250000
vt 0.375000 0.496821
vt 0.381971 0.756432
vt 0.131432 0.000000
vt 0.375000 0.756432
vt 0.131432 0.250000
vt 0.375000 0.493568
vt 0.381971 0.493568
vt 0.615581 0.493568
vt 0.625000 0.493568
vt 0.868568 0.250000
vt 0.625000 0.756432
vt 0.868568 0.000000
vt 0.615581 0.756432
vt 0.615581 0.997206
vt 0.381971 0.997206
vt 0.381971 0.895016
vt 0.615581 0.895016
vt 0.615581 0.756432
vt 0.381971 0.756432
vt 0.381971 0.753179
vt 0.615581 0.753179
vn 0.000000 0.000000 1.000000
vn 0.000000 0.000000 1.000000
vn 0.000000 0.000000 1.000000
vn 0.000000 0.000000 1.000000
vn 0.000000 1.000000 0.000000
vn 0.000000 1.000000 -0.000000
vn 0.000000 1.000000 -0.000000
vn 0.000000 1.000000 -0.000000
vn 0.000000 0.000000 -1.000000
vn 0.000000 0.000000 -1.000000
vn 0.000000 0.000000 -1.000000
vn 0.000000 0.000000 -1.000000
vn 0.000000 -1.000000 0.000000
vn 0.000000 -1.000000 0.000000
vn 0.000000 -1.000000 0.000000
vn 0.000000 -1.000000 0.000000
vn 1.000000 -0.000001 0.000000
vn 1.000000 -0.000001 0.000000
vn 1.000000 -0.000001 0.000000
vn 1.000000 -0.000001 0.000000
vn -1.000000 -0.000001 0.000000
vn -1.000000 -0.000001 0.000000
vn -1.000000 -0.000001 0.000000
vn -1.000000 -0.000001 0.000000
vn 0.000000 -1.000000 0.000000
vn 0.000000 -1.000000 -0.000000
vn 0.000000 -1.000000 0.000000
vn 0.000000 -1.000000 0.000000
vn 0.000000 0.000000 -1.000000
vn 0.000000 0.000000 -1.000000
vn 0.000000 1.000000 0.000000
vn 0.000000 1.000000 0.000000
vn 0.000000 0.000000 1.000000
vn 0.000000 0.000000 1.000000
vn 0.000000 0.000000 1.000000
vn 0.000000 0.000000 1.000000
vn 0.000000 1.000000 0.000000
vn 0.000000 1.000000 0.000000
vn 0.000000 0.000000 -1.000000
vn 0.000000 0.000000 -1.000000
vn 0.000000 -1.000000 0.000000
vn 0.000000 -1.000000 0.000000
vn 0.000000 -1.000000 -0.000000
vn 0.000000 -1.000000 0.000000
vn 0.000000 1.000000 0.000000
vn 0.000000 1.000000 0.000000
vn 0.000000 1.000000 0.000000
vn 0.000000 1.000000 0.000000
vn 1.000000 0.000000 0.000000
vn 1.000000 0.000000 0.000000
vn 0.000000 -1.000000 0.000000
vn 0.000000 -1.000000 0.000000
vn 0.000000 -1.000000 0.000000
vn 0.000000 -1.000000 0.000000
vn -1.000000 0.000000 0.000000
vn -1.000000 0.000000 0.000000
vn 0.000000 -1.000000 0.000000
vn 0.000000 -1.000000 0.000000
vn 0.000000 -1.000000 -0.000000
vn 0.000000 -1.000000 0.000000
vn 0.000000 -1.000000 0.000000
vn 0.000000 -1.000000 0.000000
vn 0.000000 -1.000000 0.000000
vn 0.000000 -1.000000 0.000000
vn 0.000000 -1.000000 0.000000
vn 0.000000 -1.000000 -0.000000
vn 0.000000 -1.000000 0.000000
vn 0.000000 -1.000000 0.000000
vn 1.000000 0.000000 0.000000
vn 1.000000 0.000000 0.000000
vn 1.000000 0.000000 0.000000
vn 1.000000 0.000000 0.000000
vn 0.000000 1.000000 0.000000
vn 0.000000 1.000000 0.000000
vn 0.000000 1.000000 0.000000
vn 0.000000 1.000000 0.000000
vn 0.000000 1.000000 0.000000
vn 0.000000 1.000000 0.000000
vn 0.000000 1.000000 0.000000
vn 0.000000 1.000000 0.000000
vn -1.000000 0.000000 0.000000
vn -1.000000 0.000000 0.000000
vn -1.000000 0.000000 0.000000
vn -1.000000 0.000000 0.000000
vn 0.000000 -1.000000 0.000000
vn 0.000000 -1.000000 0.000000
vn 0.000000 -1.000000 0.000000
vn 0.000000 -1.000000 0.000000
vn 1.000000 0.000000 0.000000
vn 1.000000 0.000000 0.000000
vn 0.000000 1.000000 0.000000
vn 0.000000 1.000000 0.000000
vn 0.000000 1.000000 0.000000
vn 0.000000 1.000000 0.000000
vn -1.000000 0.000000 0.000000
vn -1.000000 0.000000 0.000000
vn -0.000001 0.000000 1.000000
vn -0.000001 0.000000 1.000000
vn -0.000001 0.000000 1.000000
vn -0.000001 0.000000 1.000000
vn -1.000000 -0.000000 0.000000
vn -1.000000 -0.000000 0.000000
vn -1.000000 -0.000000 0.000000
vn -1.000000 -0.000000 0.000000
vn 0.000000 0.000000 -1.000000
vn 0.000000 0.000000 -1.000000
vn 0.000000 0.000000 -1.000000
vn 0.000000 0.000000 -1.000000
vn 1.000000 0.000000 0.000000
vn 1.000000 0.000000 0.000000
vn 1.000000 0.000000 0.000000
vn 1.000000 0.000000 0.000000
vn -0.000000 0.000000 1.000000
vn -0.000000 0.000000 1.000000
vn -0.000000 0.000000 1.000000
vn -0.000000 0.000000 1.000000
vn -1.000000 0.000000 0.000000
vn -1.000000 0.000000 0.000000
vn -1.000000 0.000000 0.000000
vn -1.000000 0.000000 0.000000
vn 0.000001 0.000000 -1.000000
vn 0.000001 0.000000 -1.000000
vn 0.000001 0.000000 -1.000000
vn 0.000001 0.000000 -1.000000
vn 1.000000 0.000000 0.000000
vn 1.000000 0.000000 0.000000
vn 1.000000 0.000000 0.000000
vn 1.000000 0.000000 0.000000
s 1
g pCube1
usemtl initialShadingGroup
f 12/19/1 9/15/2 13/20/3 14/22/4
s 2
f 30/45/5 31/46/6 18/27/7 19/28/8
s 3
f 10/17/9 11/18/10 15/23/11 16/24/12
s off
f 49/73/13 50/74/14 51/75/15 52/76/16
s 4
f 20/30/17 21/32/18 28/42/19 29/44/20
s 5
f 32/47/21 25/37/22 24/35/23 17/25/24
s 6
f 25/38/25 26/39/26 23/34/27 24/36/28
s 3
f 5/5/29 11/18/10 10/17/9 7/7/30
s 2
f 17/26/31 18/27/7 31/46/6 32/48/32
s 1
f 1/1/33 9/15/2 12/19/1 3/3/34
f 14/22/4 13/20/3 2/2/35 4/4/36
s 2
f 29/43/37 30/45/5 19/28/8 20/29/38
s 3
f 16/24/12 15/23/11 6/6/39 8/8/40
s 6
f 21/31/41 22/33/42 27/40/43 28/41/44
s 2
f 3/3/45 12/19/46 18/27/7 17/26/31
f 19/28/8 18/27/7 12/19/46 14/22/47
f 20/29/38 19/28/8 14/22/47 4/4/48
s 4
f 2/2/49 21/32/18 20/30/17 4/4/50
s 6
f 13/21/51 22/33/42 21/31/41 2/10/52
f 9/16/53 23/34/27 22/33/42 13/21/51
f 24/36/28 23/34/27 9/16/53 1/9/54
s 5
f 17/25/24 24/35/23 1/1/55 3/3/56
s 6
f 33/50/57 34/51/58 41/61/59 42/63/60
s off
f 53/77/61 54/78/62 55/79/63 56/80/64
s 6
f 47/70/65 48/72/66 35/52/67 36/53/68
s 4
f 46/69/69 47/71/70 36/54/71 37/56/72
s 2
f 37/55/73 38/57/74 45/67/75 46/68/76
f 38/57/74 39/58/77 44/66/78 45/67/75
f 43/65/79 44/66/78 39/58/77 40/60/80
s 5
f 40/59/81 33/49/82 42/62/83 43/64/84
s 6
f 7/7/85 10/17/86 34/51/58 33/50/57
f 35/52/67 34/51/58 10/17/86 16/24/87
f 36/53/68 35/52/67 16/24/87 8/8/88
s 4
f 37/56/72 36/54/71 8/11/89 6/12/90
s 2
f 15/23/91 38/57/74 37/55/73 6/6/92
f 11/18/93 39/58/77 38/57/74 15/23/91
f 40/60/80 39/58/77 11/18/93 5/5/94
s 5
f 7/13/95 33/49/82 40/59/81 5/14/96
s 6
f 42/63/60 41/61/59 26/39/26 25/38/25
s 5
f 43/64/84 42/62/83 25/37/22 32/47/21
s 2
f 32/48/32 31/46/6 44/66/78 43/65/79
f 45/67/75 44/66/78 31/46/6 30/45/5
f 46/68/76 45/67/75 30/45/5 29/43/37
s 4
f 29/44/20 28/42/19 47/71/70 46/69/69
s 6
f 28/41/44 27/40/43 48/72/66 47/70/65
f 27/40/43 26/39/26 41/61/59 48/72/66
s off
f 22/33/97 23/34/98 50/74/99 49/73/100
f 23/34/101 26/39/102 51/75/103 50/74/104
f 26/39/105 27/40/106 52/76/107 51/75/108
f 27/40/109 22/33/110 49/73/111 52/76/112
f 48/72/113 41/61/114 54/78/115 53/77/116
f 41/61/117 34/51/118 55/79/119 54/78/120
f 34/51/121 35/52/122 56/80/123 55/79/124
f 35/52/125 48/72/126 53/77/127 56/80/128
