# This file uses centimeters as units for non-parametric coordinates.

mtllib Bed.mtl
g default
v -0.335232 0.340069 1.630380
v 0.335232 0.340069 1.630380
v -0.335232 0.426568 1.630380
v 0.335232 0.426568 1.630380
v -0.335232 0.426568 1.305368
v 0.335232 0.426568 1.305368
v -0.335232 0.340069 1.305368
v 0.335232 0.340069 1.305368
vt 0.375000 0.000000
vt 0.625000 0.000000
vt 0.375000 0.250000
vt 0.625000 0.250000
vt 0.375000 0.500000
vt 0.625000 0.500000
vt 0.375000 0.750000
vt 0.625000 0.750000
vt 0.375000 1.000000
vt 0.625000 1.000000
vt 0.875000 0.000000
vt 0.875000 0.250000
vt 0.125000 0.000000
vt 0.125000 0.250000
vn 0.000000 0.000000 1.000000
vn 0.000000 0.000000 1.000000
vn 0.000000 0.000000 1.000000
vn 0.000000 0.000000 1.000000
vn 0.000000 1.000000 0.000000
vn 0.000000 1.000000 0.000000
vn 0.000000 1.000000 0.000000
vn 0.000000 1.000000 0.000000
vn 0.000000 0.000000 -1.000000
vn 0.000000 0.000000 -1.000000
vn 0.000000 0.000000 -1.000000
vn 0.000000 0.000000 -1.000000
vn 0.000000 -1.000000 0.000000
vn 0.000000 -1.000000 0.000000
vn 0.000000 -1.000000 0.000000
vn 0.000000 -1.000000 0.000000
vn 1.000000 0.000000 0.000000
vn 1.000000 0.000000 0.000000
vn 1.000000 0.000000 0.000000
vn 1.000000 0.000000 0.000000
vn -1.000000 0.000000 0.000000
vn -1.000000 0.000000 0.000000
vn -1.000000 0.000000 0.000000
vn -1.000000 0.000000 0.000000
s off
g pCube3
usemtl initialShadingGroup
f 1/1/1 2/2/2 4/4/3 3/3/4
f 3/3/5 4/4/6 6/6/7 5/5/8
f 5/5/9 6/6/10 8/8/11 7/7/12
f 7/7/13 8/8/14 2/10/15 1/9/16
f 2/2/17 8/11/18 6/12/19 4/4/20
f 7/13/21 1/1/22 3/3/23 5/14/24
g default
v -0.500000 0.015768 0.024797
v 0.500000 0.015768 0.024797
v -0.500000 0.320001 0.024797
v 0.500000 0.320001 0.024797
v -0.500000 0.320001 -0.024797
v 0.500000 0.320001 -0.024797
v -0.500000 0.015768 -0.024797
v 0.500000 0.015768 -0.024797
v 0.500000 0.015768 -0.045059
v 0.500000 0.015768 0.045059
v 0.500000 0.320001 -0.045059
v 0.500000 0.320001 0.045059
v -0.500000 0.015768 -0.045059
v -0.500000 0.015768 0.045059
v -0.500000 0.320001 0.045059
v -0.500000 0.320001 -0.045059
v 0.580347 0.015768 -0.045059
v 0.580347 0.015768 0.045059
v 0.580347 0.320001 -0.045059
v 0.580347 0.320001 0.045059
v -0.580347 0.015768 -0.045059
v -0.580347 0.015768 0.045059
v -0.580347 0.320001 0.045059
v -0.580347 0.320001 -0.045059
v 0.500000 -0.061579 -0.045059
v 0.500000 -0.061579 0.045059
v 0.580347 -0.061579 -0.045059
v 0.580347 -0.061579 0.045059
v 0.500000 0.397348 0.045059
v 0.500000 0.397348 -0.045059
v 0.580347 0.397348 0.045059
v 0.580347 0.397348 -0.045059
v -0.500000 -0.061579 -0.045059
v -0.500000 -0.061579 0.045059
v -0.580347 -0.061579 0.045059
v -0.580347 -0.061579 -0.045059
v -0.500000 0.397348 0.045059
v -0.500000 0.397348 -0.045059
v -0.580347 0.397348 -0.045059
v -0.580347 0.397348 0.045059
v 0.515181 0.015768 0.045059
v 0.515181 0.320001 0.045059
v 0.565166 0.015768 0.045059
v 0.565166 0.320001 0.045059
v -0.515181 0.015768 0.045059
v -0.515181 0.320001 0.045059
v -0.565166 0.320001 0.045059
v -0.565166 0.015768 0.045059
v 0.515181 0.015768 1.675583
v 0.515181 0.320001 1.675583
v 0.565166 0.015768 1.675583
v 0.565166 0.320001 1.675583
v -0.515181 0.015768 1.675583
v -0.515181 0.320001 1.675583
v -0.565166 0.320001 1.675583
v -0.565166 0.015768 1.675583
v 0.493960 0.015768 1.675583
v 0.493960 0.320001 1.675583
v 0.586388 0.015768 1.675583
v 0.586388 0.320001 1.675583
v -0.493960 0.015768 1.675583
v -0.493960 0.320001 1.675583
v -0.586388 0.320001 1.675583
v -0.586388 0.015768 1.675583
v 0.493960 0.015768 1.765370
v 0.493960 0.320001 1.765370
v 0.586388 0.015768 1.765370
v 0.586388 0.320001 1.765370
v -0.493960 0.015768 1.765370
v -0.493960 0.320001 1.765370
v -0.586388 0.320001 1.765370
v -0.586388 0.015768 1.765370
v 0.493960 -0.058034 1.675583
v 0.586388 -0.058034 1.675583
v 0.586388 -0.058034 1.765370
v 0.493960 -0.058034 1.765370
v 0.493960 0.393804 1.675583
v 0.586388 0.393804 1.675583
v 0.493960 0.393804 1.765370
v 0.586388 0.393804 1.765370
v -0.493960 0.393804 1.675583
v -0.586388 0.393804 1.675583
v -0.586388 0.393804 1.765370
v -0.493960 0.393804 1.765370
v -0.493960 -0.058034 1.675583
v -0.586388 -0.058034 1.675583
v -0.493960 -0.058034 1.765370
v -0.586388 -0.058034 1.765370
v 0.493960 0.015768 1.693332
v 0.493960 0.320001 1.693332
v 0.493960 0.015768 1.747621
v 0.493960 0.320001 1.747621
v -0.493960 0.015768 1.693332
v -0.493960 0.320001 1.693332
v -0.493960 0.320001 1.747621
v -0.493960 0.015768 1.747621
v 0.000000 0.015768 1.693332
v 0.000000 0.320001 1.693332
v 0.000000 0.015768 1.747621
v 0.000000 0.320001 1.747621
vt 0.375000 0.000000
vt 0.625000 0.000000
vt 0.375000 0.250000
vt 0.625000 0.250000
vt 0.375000 0.500000
vt 0.625000 0.500000
vt 0.375000 0.750000
vt 0.625000 0.750000
vt 0.375000 1.000000
vt 0.625000 1.000000
vt 0.875000 0.000000
vt 0.875000 0.250000
vt 0.125000 0.000000
vt 0.125000 0.250000
vt 0.625000 0.000000
vt 0.875000 0.000000
vt 0.875000 0.250000
vt 0.625000 0.250000
vt 0.125000 0.000000
vt 0.375000 0.000000
vt 0.375000 0.250000
vt 0.125000 0.250000
vt 0.625000 0.000000
vt 0.875000 0.000000
vt 0.875000 0.250000
vt 0.625000 0.250000
vt 0.125000 0.000000
vt 0.375000 0.000000
vt 0.375000 0.250000
vt 0.125000 0.250000
vt 0.625000 0.000000
vt 0.875000 0.000000
vt 0.875000 0.000000
vt 0.625000 0.000000
vt 0.875000 0.250000
vt 0.625000 0.250000
vt 0.625000 0.250000
vt 0.875000 0.250000
vt 0.125000 0.000000
vt 0.375000 0.000000
vt 0.375000 0.000000
vt 0.125000 0.000000
vt 0.375000 0.250000
vt 0.125000 0.250000
vt 0.125000 0.250000
vt 0.375000 0.250000
vt 0.625000 0.250000
vt 0.625000 0.000000
vt 0.625000 0.000000
vt 0.625000 0.250000
vt 0.375000 0.000000
vt 0.375000 0.250000
vt 0.375000 0.250000
vt 0.375000 0.000000
vt 0.625000 0.250000
vt 0.625000 0.000000
vt 0.625000 0.000000
vt 0.625000 0.250000
vt 0.375000 0.000000
vt 0.375000 0.250000
vt 0.375000 0.250000
vt 0.375000 0.000000
vt 0.625000 0.250000
vt 0.625000 0.000000
vt 0.625000 0.000000
vt 0.625000 0.250000
vt 0.375000 0.000000
vt 0.375000 0.250000
vt 0.375000 0.250000
vt 0.375000 0.000000
vt 0.625000 0.250000
vt 0.625000 0.000000
vt 0.625000 0.000000
vt 0.625000 0.250000
vt 0.375000 0.000000
vt 0.375000 0.250000
vt 0.375000 0.250000
vt 0.375000 0.000000
vt 0.625000 0.000000
vt 0.625000 0.000000
vt 0.625000 0.000000
vt 0.625000 0.000000
vt 0.625000 0.250000
vt 0.625000 0.250000
vt 0.625000 0.250000
vt 0.625000 0.250000
vt 0.375000 0.250000
vt 0.375000 0.250000
vt 0.375000 0.250000
vt 0.375000 0.250000
vt 0.375000 0.000000
vt 0.375000 0.000000
vt 0.375000 0.000000
vt 0.375000 0.000000
vt 0.625000 0.250000
vt 0.625000 0.000000
vt 0.625000 0.000000
vt 0.625000 0.250000
vt 0.375000 0.000000
vt 0.375000 0.250000
vt 0.375000 0.250000
vt 0.375000 0.000000
vt 0.625000 0.250000
vt 0.625000 0.000000
vt 0.625000 0.000000
vt 0.625000 0.250000
vt 0.375000 0.000000
vt 0.375000 0.250000
vt 0.375000 0.250000
vt 0.375000 0.000000
vn 0.000000 0.000000 1.000000
vn 0.000000 0.000000 1.000000
vn 0.000000 0.000000 1.000000
vn 0.000000 0.000000 1.000000
vn 0.000000 1.000000 0.000000
vn 0.000000 1.000000 0.000000
vn 0.000000 1.000000 0.000000
vn 0.000000 1.000000 0.000000
vn 0.000000 0.000000 -1.000000
vn 0.000000 0.000000 -1.000000
vn 0.000000 0.000000 -1.000000
vn 0.000000 0.000000 -1.000000
vn 0.000000 -1.000000 0.000000
vn 0.000000 -1.000000 0.000000
vn 0.000000 -1.000000 0.000000
vn 0.000000 -1.000000 0.000000
vn 1.000000 0.000000 0.000000
vn 1.000000 0.000000 0.000000
vn 1.000000 0.000000 0.000000
vn 1.000000 0.000000 0.000000
vn -1.000000 0.000000 0.000000
vn -1.000000 0.000000 0.000000
vn -1.000000 0.000000 0.000000
vn -1.000000 0.000000 0.000000
vn 0.000000 0.000000 0.000000
vn 0.000000 0.000000 0.000000
vn 0.000000 0.000000 0.000000
vn 0.000000 0.000000 0.000000
vn -1.000000 0.000000 0.000000
vn -1.000000 0.000000 0.000000
vn -1.000000 0.000000 0.000000
vn -1.000000 0.000000 0.000000
vn 0.000000 0.000000 0.000000
vn 0.000000 0.000000 0.000000
vn 0.000000 0.000000 0.000000
vn 0.000000 0.000000 0.000000
vn -1.000000 0.000000 0.000000
vn -1.000000 0.000000 0.000000
vn -1.000000 0.000000 0.000000
vn -1.000000 0.000000 0.000000
vn 0.000000 0.000000 0.000000
vn 0.000000 0.000000 0.000000
vn 0.000000 0.000000 0.000000
vn 0.000000 0.000000 0.000000
vn 1.000000 0.000000 0.000000
vn 1.000000 0.000000 0.000000
vn 1.000000 0.000000 0.000000
vn 1.000000 0.000000 0.000000
vn 0.000000 0.000000 0.000000
vn 0.000000 0.000000 0.000000
vn 0.000000 0.000000 0.000000
vn 0.000000 0.000000 0.000000
vn 1.000000 0.000000 0.000000
vn 1.000000 0.000000 0.000000
vn 1.000000 0.000000 0.000000
vn 1.000000 0.000000 0.000000
vn 0.000000 -1.000000 0.000000
vn 0.000000 -1.000000 0.000000
vn 0.000000 -1.000000 0.000000
vn 0.000000 -1.000000 0.000000
vn 0.000000 0.000000 -1.000000
vn 0.000000 0.000000 -1.000000
vn 0.000000 0.000000 -1.000000
vn 0.000000 0.000000 -1.000000
vn 0.000000 1.000000 0.000000
vn 0.000000 1.000000 0.000000
vn 0.000000 1.000000 0.000000
vn 0.000000 1.000000 0.000000
vn 0.000000 0.000000 1.000000
vn 0.000000 0.000000 1.000000
vn 0.000000 0.000000 1.000000
vn 0.000000 0.000000 1.000000
vn 0.000000 -1.000000 0.000000
vn 0.000000 -1.000000 0.000000
vn 0.000000 -1.000000 0.000000
vn 0.000000 -1.000000 0.000000
vn 0.000000 0.000000 1.000000
vn 0.000000 0.000000 1.000000
vn 0.000000 0.000000 1.000000
vn 0.000000 0.000000 1.000000
vn 0.000000 1.000000 0.000000
vn 0.000000 1.000000 0.000000
vn 0.000000 1.000000 0.000000
vn 0.000000 1.000000 0.000000
vn 0.000000 0.000000 -1.000000
vn 0.000000 0.000000 -1.000000
vn 0.000000 0.000000 -1.000000
vn 0.000000 0.000000 -1.000000
vn -1.000000 0.000000 0.000000
vn -1.000000 0.000000 0.000000
vn -1.000000 0.000000 0.000000
vn -1.000000 0.000000 0.000000
vn 0.000000 0.000000 -1.000000
vn 0.000000 0.000000 -1.000000
vn 1.000000 0.000000 0.000000
vn 1.000000 0.000000 0.000000
vn 0.000000 0.000000 1.000000
vn 0.000000 0.000000 1.000000
vn 0.000000 0.000000 1.000000
vn 0.000000 0.000000 1.000000
vn -1.000000 0.000000 0.000000
vn -1.000000 0.000000 0.000000
vn -1.000000 0.000000 0.000000
vn -1.000000 0.000000 0.000000
vn 0.000000 0.000000 1.000000
vn 0.000000 0.000000 1.000000
vn 0.000000 0.000000 1.000000
vn 0.000000 0.000000 1.000000
vn 1.000000 0.000000 0.000000
vn 1.000000 0.000000 0.000000
vn 0.000000 0.000000 -1.000000
vn 0.000000 0.000000 -1.000000
vn 1.000000 0.000000 0.000000
vn 1.000000 0.000000 0.000000
vn 1.000000 0.000000 0.000000
vn 1.000000 0.000000 0.000000
vn 0.000000 0.000000 1.000000
vn 0.000000 0.000000 1.000000
vn 0.000000 0.000000 1.000000
vn 0.000000 0.000000 1.000000
vn -1.000000 0.000000 0.000000
vn -1.000000 0.000000 0.000000
vn 0.000000 0.000000 -1.000000
vn 0.000000 0.000000 -1.000000
vn 1.000000 0.000000 0.000000
vn 1.000000 0.000000 0.000000
vn 1.000000 0.000000 0.000000
vn 1.000000 0.000000 0.000000
vn 0.000000 0.000000 -1.000000
vn 0.000000 0.000000 -1.000000
vn -1.000000 0.000000 0.000000
vn -1.000000 0.000000 0.000000
vn 0.000000 0.000000 1.000000
vn 0.000000 0.000000 1.000000
vn 0.000000 0.000000 1.000000
vn 0.000000 0.000000 1.000000
vn 0.000000 0.000000 1.000000
vn 0.000000 0.000000 1.000000
vn 0.000000 0.000000 1.000000
vn 0.000000 0.000000 1.000000
vn 0.000000 0.000000 1.000000
vn 0.000000 0.000000 1.000000
vn 0.000000 0.000000 1.000000
vn 0.000000 0.000000 1.000000
vn -1.000000 0.000000 0.000000
vn -1.000000 0.000000 0.000000
vn -1.000000 0.000000 0.000000
vn -1.000000 0.000000 0.000000
vn 0.000000 -1.000000 0.000000
vn 0.000000 -1.000000 0.000000
vn 0.000000 -1.000000 0.000000
vn 0.000000 -1.000000 0.000000
vn 1.000000 0.000000 0.000000
vn 1.000000 0.000000 0.000000
vn 1.000000 0.000000 0.000000
vn 1.000000 0.000000 0.000000
vn 0.000000 1.000000 0.000000
vn 0.000000 1.000000 0.000000
vn 0.000000 1.000000 0.000000
vn 0.000000 1.000000 0.000000
vn 1.000000 0.000000 0.000000
vn 1.000000 0.000000 0.000000
vn 1.000000 0.000000 0.000000
vn 1.000000 0.000000 0.000000
vn 0.000000 1.000000 0.000000
vn 0.000000 1.000000 0.000000
vn 0.000000 1.000000 0.000000
vn 0.000000 1.000000 0.000000
vn -1.000000 0.000000 0.000000
vn -1.000000 0.000000 0.000000
vn -1.000000 0.000000 0.000000
vn -1.000000 0.000000 0.000000
vn 0.000000 -1.000000 0.000000
vn 0.000000 -1.000000 0.000000
vn 0.000000 -1.000000 0.000000
vn 0.000000 -1.000000 0.000000
vn 0.000000 0.000000 -1.000000
vn 0.000000 0.000000 -1.000000
vn 0.000000 0.000000 -1.000000
vn 0.000000 0.000000 -1.000000
vn 0.000000 0.000000 0.000000
vn 0.000000 0.000000 0.000000
vn 0.000000 0.000000 0.000000
vn 0.000000 0.000000 0.000000
vn 0.000000 0.000000 -1.000000
vn 0.000000 0.000000 -1.000000
vn 0.000000 0.000000 -1.000000
vn 0.000000 0.000000 -1.000000
vn 0.000000 0.000000 -1.000000
vn 0.000000 0.000000 -1.000000
vn 0.000000 0.000000 -1.000000
vn 0.000000 0.000000 -1.000000
vn 0.000000 0.000000 -1.000000
vn 0.000000 0.000000 -1.000000
vn 0.000000 0.000000 -1.000000
vn 0.000000 0.000000 -1.000000
vn 0.000000 0.000000 0.000000
vn 0.000000 0.000000 0.000000
vn 0.000000 0.000000 0.000000
vn 0.000000 0.000000 0.000000
vn -1.000000 0.000000 0.000000
vn -1.000000 0.000000 0.000000
vn -1.000000 0.000000 0.000000
vn -1.000000 0.000000 0.000000
vn 0.000000 -1.000000 0.000000
vn 0.000000 -1.000000 0.000000
vn 0.000000 -1.000000 0.000000
vn 0.000000 -1.000000 0.000000
vn 1.000000 0.000000 0.000000
vn 1.000000 0.000000 0.000000
vn 1.000000 0.000000 0.000000
vn 1.000000 0.000000 0.000000
vn 0.000000 1.000000 0.000000
vn 0.000000 1.000000 0.000000
vn 0.000000 1.000000 0.000000
vn 0.000000 1.000000 0.000000
vn 1.000000 0.000000 0.000000
vn 1.000000 0.000000 0.000000
vn 1.000000 0.000000 0.000000
vn 1.000000 0.000000 0.000000
vn 0.000000 1.000000 0.000000
vn 0.000000 1.000000 0.000000
vn 0.000000 1.000000 0.000000
vn 0.000000 1.000000 0.000000
vn -1.000000 0.000000 0.000000
vn -1.000000 0.000000 0.000000
vn -1.000000 0.000000 0.000000
vn -1.000000 0.000000 0.000000
vn 0.000000 -1.000000 0.000000
vn 0.000000 -1.000000 0.000000
vn 0.000000 -1.000000 0.000000
vn 0.000000 -1.000000 0.000000
vn 0.000000 0.000000 -1.000000
vn 0.000000 0.000000 -1.000000
vn 0.000000 0.000000 -1.000000
vn 0.000000 0.000000 -1.000000
vn 1.000000 0.000000 0.000000
vn 1.000000 0.000000 0.000000
vn 0.000000 0.000000 1.000000
vn 0.000000 0.000000 1.000000
vn -1.000000 0.000000 0.000000
vn -1.000000 0.000000 0.000000
vn -1.000000 0.000000 0.000000
vn -1.000000 0.000000 0.000000
vn 0.000000 0.000000 -1.000000
vn 0.000000 0.000000 -1.000000
vn -1.000000 0.000000 0.000000
vn -1.000000 0.000000 0.000000
vn -1.000000 0.000000 0.000000
vn -1.000000 0.000000 0.000000
vn 0.000000 0.000000 1.000000
vn 0.000000 0.000000 1.000000
vn 1.000000 0.000000 0.000000
vn 1.000000 0.000000 0.000000
vn 0.000000 0.000000 -1.000000
vn 0.000000 0.000000 -1.000000
vn -1.000000 0.000000 0.000000
vn -1.000000 0.000000 0.000000
vn 0.000000 0.000000 1.000000
vn 0.000000 0.000000 1.000000
vn 1.000000 0.000000 0.000000
vn 1.000000 0.000000 0.000000
vn 1.000000 0.000000 0.000000
vn 1.000000 0.000000 0.000000
vn 0.000000 0.000000 -1.000000
vn 0.000000 0.000000 -1.000000
vn 0.000000 0.000000 -1.000000
vn 0.000000 0.000000 -1.000000
vn 1.000000 0.000000 0.000000
vn 1.000000 0.000000 0.000000
vn 1.000000 0.000000 0.000000
vn 1.000000 0.000000 0.000000
vn 0.000000 0.000000 1.000000
vn 0.000000 0.000000 1.000000
vn -1.000000 0.000000 0.000000
vn -1.000000 0.000000 0.000000
vn -1.000000 0.000000 0.000000
vn -1.000000 0.000000 0.000000
vn -1.000000 0.000000 0.000000
vn -1.000000 0.000000 0.000000
vn 0.000000 0.000000 0.000000
vn 0.000000 0.000000 0.000000
vn 0.000000 -1.000000 0.000000
vn 0.000000 -1.000000 0.000000
vn -1.000000 0.000000 0.000000
vn -1.000000 0.000000 0.000000
vn -1.000000 0.000000 0.000000
vn -1.000000 0.000000 0.000000
vn 0.000000 -0.000000 0.000000
vn 0.000000 -0.000000 0.000000
vn 0.000000 1.000000 0.000000
vn 0.000000 1.000000 0.000000
vn 1.000000 0.000000 0.000000
vn 1.000000 0.000000 0.000000
vn 1.000000 0.000000 0.000000
vn 1.000000 0.000000 0.000000
vn 0.000000 0.000000 0.000000
vn 0.000000 0.000000 0.000000
vn 0.000000 1.000000 0.000000
vn 0.000000 1.000000 0.000000
vn 1.000000 0.000000 0.000000
vn 1.000000 0.000000 0.000000
vn 1.000000 0.000000 0.000000
vn 1.000000 0.000000 0.000000
vn 0.000000 0.000000 0.000000
vn 0.000000 0.000000 0.000000
vn 0.000000 -1.000000 0.000000
vn 0.000000 -1.000000 0.000000
vn 0.000000 0.000000 -1.000000
vn 0.000000 0.000000 -1.000000
vn 0.000000 0.000000 -1.000000
vn 0.000000 0.000000 -1.000000
vn 0.000000 -1.000000 0.000000
vn 0.000000 -1.000000 0.000000
vn 0.000000 0.000000 1.000000
vn 0.000000 0.000000 1.000000
vn 0.000000 0.000000 1.000000
vn 0.000000 0.000000 1.000000
vn 0.000000 1.000000 0.000000
vn 0.000000 1.000000 0.000000
vn 0.000000 0.000000 -1.000000
vn 0.000000 0.000000 -1.000000
vn 0.000000 0.000000 -1.000000
vn 0.000000 0.000000 -1.000000
vn 0.000000 1.000000 0.000000
vn 0.000000 1.000000 0.000000
vn 0.000000 0.000000 1.000000
vn 0.000000 0.000000 1.000000
vn 0.000000 0.000000 1.000000
vn 0.000000 0.000000 1.000000
vn 0.000000 -1.000000 0.000000
vn 0.000000 -1.000000 0.000000
s off
g pCube1
usemtl initialShadingGroup
f 9/15/25 10/16/26 12/18/27 11/17/28
f 11/17/29 12/18/30 14/20/31 13/19/32
f 13/19/33 14/20/34 16/22/35 15/21/36
f 15/21/37 16/22/38 10/24/39 9/23/40
s 1
f 26/37/41 25/38/42 27/39/43 28/40/44
s 2
f 29/41/45 30/42/46 31/43/47 32/44/48
s off
f 10/16/49 16/25/50 17/30/51 18/29/52
f 16/25/53 14/26/54 19/31/55 17/30/56
f 14/26/57 12/18/58 20/32/59 19/31/60
f 12/18/61 10/16/62 18/29/63 20/32/64
f 15/27/65 9/15/66 22/34/67 21/33/68
f 9/15/69 11/17/70 23/35/71 22/34/72
f 11/17/73 13/28/74 24/36/75 23/35/76
f 13/28/77 15/27/78 21/33/79 24/36/80
f 34/45/81 33/46/82 35/47/83 36/48/84
s 3
f 17/30/85 19/31/86 27/39/87 25/38/88
s off
f 38/49/89 37/50/90 39/51/91 40/52/92
s 4
f 74/85/93 73/86/94 75/87/95 76/88/96
s off
f 41/53/97 42/54/98 43/55/99 44/56/100
s 5
f 77/89/101 78/90/102 79/91/103 80/92/104
s off
f 45/57/105 46/58/106 47/59/107 48/60/108
s 6
f 24/36/109 21/33/110 29/41/111 32/44/112
s off
f 18/29/113 17/30/114 33/46/115 34/45/116
s 3
f 17/30/85 25/38/88 35/47/117 33/46/118
s 1
f 25/38/42 26/37/41 36/48/119 35/47/120
s 7
f 26/37/121 18/29/122 34/45/123 36/48/124
s off
f 19/31/125 20/32/126 37/50/127 38/49/128
s 7
f 20/32/129 28/40/130 39/51/131 37/50/132
s 1
f 28/40/44 27/39/43 40/52/133 39/51/134
s 3
f 27/39/87 19/31/86 38/49/135 40/52/136
s off
f 21/33/137 22/34/138 42/54/139 41/53/140
s 9
f 22/34/141 30/42/142 43/55/143 42/54/144
s 2
f 30/42/46 29/41/45 44/56/145 43/55/146
s 6
f 29/41/111 21/33/110 41/53/147 44/56/148
s off
f 23/35/149 24/36/150 46/58/151 45/57/152
s 6
f 24/36/109 32/44/112 47/59/153 46/58/154
s 2
f 32/44/48 31/43/47 48/60/155 47/59/156
s 9
f 31/43/157 23/35/158 45/57/159 48/60/160
s 7
f 20/32/129 18/29/122 49/62/161 50/61/162
f 18/29/122 26/37/121 51/63/163 49/62/161
f 26/37/121 28/40/130 52/64/164 51/63/163
f 28/40/130 20/32/129 50/61/162 52/64/164
s 9
f 22/34/141 23/35/158 54/66/165 53/65/166
f 23/35/158 31/43/157 55/67/167 54/66/165
f 31/43/157 30/42/142 56/68/168 55/67/167
f 30/42/142 22/34/141 53/65/166 56/68/168
s off
f 50/61/169 49/62/170 57/70/171 58/69/172
f 49/62/173 51/63/174 59/71/175 57/70/176
f 51/63/177 52/64/178 60/72/179 59/71/180
f 52/64/181 50/61/182 58/69/183 60/72/184
f 53/65/185 54/66/186 62/74/187 61/73/188
f 54/66/189 55/67/190 63/75/191 62/74/192
f 55/67/193 56/68/194 64/76/195 63/75/196
f 56/68/197 53/65/198 61/73/199 64/76/200
s 11
f 58/69/201 57/70/202 65/78/203 66/77/204
s off
f 57/70/205 59/71/206 67/79/207 65/78/208
s 11
f 59/71/209 60/72/210 68/80/211 67/79/212
f 60/72/210 58/69/201 66/77/204 68/80/211
s 12
f 61/73/213 62/74/214 70/82/215 69/81/216
f 62/74/214 63/75/217 71/83/218 70/82/215
f 63/75/217 64/76/219 72/84/220 71/83/218
s off
f 64/76/221 61/73/222 69/81/223 72/84/224
f 106/117/225 105/118/226 107/119/227 108/120/228
f 81/93/229 82/94/230 83/95/231 84/96/232
s 13
f 67/79/233 68/80/234 76/88/235 75/87/236
s off
f 86/97/237 85/98/238 87/99/239 88/100/240
f 105/121/241 106/122/242 108/123/243 107/124/244
f 89/101/245 90/102/246 91/103/247 92/104/248
s 14
f 71/83/249 72/84/250 80/92/251 79/91/252
s off
f 94/105/253 93/106/254 95/107/255 96/108/256
f 65/78/257 67/79/258 82/94/259 81/93/260
s 13
f 67/79/233 75/87/236 83/95/261 82/94/262
s 4
f 75/87/95 73/86/94 84/96/263 83/95/264
s off
f 73/86/265 65/78/266 81/93/267 84/96/268
s 11
f 68/80/211 66/77/204 85/98/269 86/97/270
s off
f 66/77/271 74/85/272 87/99/273 85/98/274
s 4
f 74/85/93 76/88/96 88/100/275 87/99/276
s 13
f 76/88/235 68/80/234 86/97/277 88/100/278
s 12
f 70/82/215 71/83/218 90/102/279 89/101/280
s 14
f 71/83/249 79/91/252 91/103/281 90/102/282
s 5
f 79/91/103 78/90/102 92/104/283 91/103/284
s off
f 78/90/285 70/82/286 89/101/287 92/104/288
f 72/84/289 69/81/290 93/106/291 94/105/292
f 69/81/293 77/89/294 95/107/295 93/106/296
s 5
f 77/89/101 80/92/104 96/108/297 95/107/298
s 14
f 80/92/251 72/84/250 94/105/299 96/108/300
s off
f 66/77/301 65/78/302 97/110/303 98/109/304
s 15
f 65/78/305 73/86/306 99/111/307 97/110/308
s off
f 73/86/309 74/85/310 100/112/311 99/111/312
s 16
f 74/85/313 66/77/314 98/109/315 100/112/316
s off
f 69/81/317 70/82/318 102/114/319 101/113/320
s 17
f 70/82/321 78/90/322 103/115/323 102/114/324
s off
f 78/90/325 77/89/326 104/116/327 103/115/328
s 18
f 77/89/329 69/81/330 101/113/331 104/116/332
s off
f 98/109/333 97/110/334 105/118/335 106/117/336
s 15
f 97/110/308 99/111/307 107/119/337 105/118/338
s off
f 99/111/339 100/112/340 108/120/341 107/119/342
s 16
f 100/112/316 98/109/315 106/117/343 108/120/344
s off
f 101/113/345 102/114/346 106/122/347 105/121/348
s 17
f 102/114/324 103/115/323 108/123/349 106/122/350
s off
f 103/115/351 104/116/352 107/124/353 108/123/354
s 18
f 104/116/332 101/113/331 105/121/355 107/124/356
g default
v -0.511233 0.252427 1.688442
v 0.511233 0.252427 1.688442
v -0.511233 0.352730 1.688442
v 0.511233 0.352730 1.688442
v -0.511233 0.352730 0.039559
v 0.511233 0.352730 0.039559
v -0.511233 0.252427 0.039559
v 0.511233 0.252427 0.039559
vt 0.375000 0.000000
vt 0.625000 0.000000
vt 0.375000 0.250000
vt 0.625000 0.250000
vt 0.375000 0.500000
vt 0.625000 0.500000
vt 0.375000 0.750000
vt 0.625000 0.750000
vt 0.375000 1.000000
vt 0.625000 1.000000
vt 0.875000 0.000000
vt 0.875000 0.250000
vt 0.125000 0.000000
vt 0.125000 0.250000
vn 0.000000 0.000000 1.000000
vn 0.000000 0.000000 1.000000
vn 0.000000 0.000000 1.000000
vn 0.000000 0.000000 1.000000
vn 0.000000 1.000000 0.000000
vn 0.000000 1.000000 0.000000
vn 0.000000 1.000000 0.000000
vn 0.000000 1.000000 0.000000
vn 0.000000 0.000000 -1.000000
vn 0.000000 0.000000 -1.000000
vn 0.000000 0.000000 -1.000000
vn 0.000000 0.000000 -1.000000
vn 0.000000 -1.000000 0.000000
vn 0.000000 -1.000000 0.000000
vn 0.000000 -1.000000 0.000000
vn 0.000000 -1.000000 0.000000
vn 1.000000 0.000000 0.000000
vn 1.000000 0.000000 0.000000
vn 1.000000 0.000000 0.000000
vn 1.000000 0.000000 0.000000
vn -1.000000 0.000000 0.000000
vn -1.000000 0.000000 0.000000
vn -1.000000 0.000000 0.000000
vn -1.000000 0.000000 0.000000
s off
g pCube2
usemtl initialShadingGroup
f 109/125/357 110/126/358 112/128/359 111/127/360
f 111/127/361 112/128/362 114/130/363 113/129/364
f 113/129/365 114/130/366 116/132/367 115/131/368
f 115/131/369 116/132/370 110/134/371 109/133/372
f 110/126/373 116/135/374 114/136/375 112/128/376
f 115/137/377 109/125/378 111/127/379 113/138/380
