# This file uses centimeters as units for non-parametric coordinates.

mtllib Axe.mtl
g default
v -0.012215 0.110484 0.012215
v 0.012215 0.110484 0.012215
v -0.012215 0.670649 0.012215
v 0.012215 0.670649 0.012215
v -0.012215 0.670649 -0.012215
v 0.012215 0.670649 -0.012215
v -0.012215 0.110484 -0.012215
v 0.012215 0.110484 -0.012215
vt 0.375000 0.000000
vt 0.625000 0.000000
vt 0.375000 0.250000
vt 0.625000 0.250000
vt 0.375000 0.500000
vt 0.625000 0.500000
vt 0.375000 0.750000
vt 0.625000 0.750000
vt 0.375000 1.000000
vt 0.625000 1.000000
vt 0.875000 0.000000
vt 0.875000 0.250000
vt 0.125000 0.000000
vt 0.125000 0.250000
vn 0.000000 0.000000 1.000000
vn 0.000000 0.000000 1.000000
vn 0.000000 0.000000 1.000000
vn 0.000000 0.000000 1.000000
vn 0.000000 1.000000 0.000000
vn 0.000000 1.000000 0.000000
vn 0.000000 1.000000 0.000000
vn 0.000000 1.000000 0.000000
vn 0.000000 0.000000 -1.000000
vn 0.000000 0.000000 -1.000000
vn 0.000000 0.000000 -1.000000
vn 0.000000 0.000000 -1.000000
vn 0.000000 -1.000000 0.000000
vn 0.000000 -1.000000 0.000000
vn 0.000000 -1.000000 0.000000
vn 0.000000 -1.000000 0.000000
vn 1.000000 0.000000 0.000000
vn 1.000000 0.000000 0.000000
vn 1.000000 0.000000 0.000000
vn 1.000000 0.000000 0.000000
vn -1.000000 0.000000 0.000000
vn -1.000000 0.000000 0.000000
vn -1.000000 0.000000 0.000000
vn -1.000000 0.000000 0.000000
s off
g pCube1
usemtl initialShadingGroup
f 1/1/1 2/2/2 4/4/3 3/3/4
f 3/3/5 4/4/6 6/6/7 5/5/8
f 5/5/9 6/6/10 8/8/11 7/7/12
f 7/7/13 8/8/14 2/10/15 1/9/16
f 2/2/17 8/11/18 6/12/19 4/4/20
f 7/13/21 1/1/22 3/3/23 5/14/24
g default
v -0.014796 0.486660 0.092919
v 0.014796 0.486660 0.092919
v -0.014796 0.642064 0.092919
v 0.014796 0.642064 0.092919
v -0.025826 0.661963 -0.040421
v 0.025826 0.661963 -0.040421
v -0.025826 0.466761 -0.040421
v 0.025826 0.466761 -0.040421
v -0.009775 0.481021 0.150243
v 0.009775 0.481021 0.150243
v 0.009775 0.647703 0.150243
v -0.009775 0.647703 0.150243
v -0.002231 0.455196 0.195100
v 0.002231 0.455196 0.195100
v 0.002231 0.673529 0.195100
v -0.002231 0.673529 0.195100
vt 0.375000 0.000000
vt 0.625000 0.000000
vt 0.375000 0.250000
vt 0.625000 0.250000
vt 0.375000 0.500000
vt 0.625000 0.500000
vt 0.375000 0.750000
vt 0.625000 0.750000
vt 0.375000 1.000000
vt 0.625000 1.000000
vt 0.875000 0.000000
vt 0.875000 0.250000
vt 0.125000 0.000000
vt 0.125000 0.250000
vt 0.375000 0.000000
vt 0.625000 0.000000
vt 0.625000 0.250000
vt 0.375000 0.250000
vt 0.375000 0.000000
vt 0.625000 0.000000
vt 0.625000 0.250000
vt 0.375000 0.250000
vn 0.000000 0.000000 1.000000
vn 0.000000 0.000000 1.000000
vn 0.000000 0.000000 1.000000
vn 0.000000 0.000000 1.000000
vn 0.000000 0.993092 0.117342
vn 0.000000 0.993092 0.117342
vn 0.000000 0.989047 0.147602
vn 0.000000 0.989047 0.147602
vn 0.000000 0.000000 -1.000000
vn 0.000000 0.000000 -1.000000
vn 0.000000 0.000000 -1.000000
vn 0.000000 0.000000 -1.000000
vn 0.000000 -0.989047 0.147602
vn 0.000000 -0.989047 0.147602
vn 0.000000 -0.993092 0.117343
vn 0.000000 -0.993092 0.117343
vn 0.996486 0.000000 0.083764
vn 0.996596 0.000000 0.082441
vn 0.996596 0.000000 0.082441
vn 0.996486 0.000000 0.083764
vn -0.996596 0.000000 0.082441
vn -0.996486 0.000000 0.083764
vn -0.996486 0.000000 0.083764
vn -0.996596 0.000000 0.082441
vn 0.000000 -0.985837 -0.167706
vn 0.000000 -0.985837 -0.167706
vn 0.991085 0.000000 0.133231
vn 0.991085 0.000000 0.133231
vn 0.000000 0.985837 -0.167706
vn 0.000000 0.985837 -0.167706
vn -0.991085 0.000000 0.133231
vn -0.991085 0.000000 0.133231
vn 0.000000 -0.866635 -0.498943
vn 0.000000 -0.866635 -0.498943
vn 0.986152 0.000000 0.165847
vn 0.986152 0.000000 0.165847
vn 0.000000 0.866634 -0.498944
vn 0.000000 0.866634 -0.498944
vn -0.986152 0.000000 0.165847
vn -0.986152 0.000000 0.165847
s off
g pCube2
usemtl initialShadingGroup
f 21/33/25 22/34/26 23/35/27 24/36/28
s 1
f 11/17/29 12/18/30 14/20/31 13/19/32
s off
f 13/19/33 14/20/34 16/22/35 15/21/36
s 2
f 15/21/37 16/22/38 10/24/39 9/23/40
s 3
f 10/16/41 16/25/42 14/26/43 12/18/44
s 4
f 15/27/45 9/15/46 11/17/47 13/28/48
s 2
f 9/15/40 10/16/39 18/30/49 17/29/50
s 3
f 10/16/41 12/18/44 19/31/51 18/30/52
s 1
f 12/18/30 11/17/29 20/32/53 19/31/54
s 4
f 11/17/47 9/15/46 17/29/55 20/32/56
s 2
f 17/29/50 18/30/49 22/34/57 21/33/58
s 3
f 18/30/52 19/31/51 23/35/59 22/34/60
s 1
f 19/31/54 20/32/53 24/36/61 23/35/62
s 4
f 20/32/56 17/29/55 21/33/63 24/36/64
g default
v -0.012215 -0.113403 0.012215
v 0.012215 -0.113403 0.012215
v -0.012215 0.110780 0.012215
v 0.012215 0.110780 0.012215
v -0.012215 0.110780 -0.012215
v 0.012215 0.110780 -0.012215
v -0.012215 -0.113403 -0.012215
v 0.012215 -0.113403 -0.012215
vt 0.375000 0.000000
vt 0.625000 0.000000
vt 0.375000 0.250000
vt 0.625000 0.250000
vt 0.375000 0.500000
vt 0.625000 0.500000
vt 0.375000 0.750000
vt 0.625000 0.750000
vt 0.375000 1.000000
vt 0.625000 1.000000
vt 0.875000 0.000000
vt 0.875000 0.250000
vt 0.125000 0.000000
vt 0.125000 0.250000
vn 0.000000 0.000000 1.000000
vn 0.000000 0.000000 1.000000
vn 0.000000 0.000000 1.000000
vn 0.000000 0.000000 1.000000
vn 0.000000 1.000000 0.000000
vn 0.000000 1.000000 0.000000
vn 0.000000 1.000000 0.000000
vn 0.000000 1.000000 0.000000
vn 0.000000 0.000000 -1.000000
vn 0.000000 0.000000 -1.000000
vn 0.000000 0.000000 -1.000000
vn 0.000000 0.000000 -1.000000
vn 0.000000 -1.000000 0.000000
vn 0.000000 -1.000000 0.000000
vn 0.000000 -1.000000 0.000000
vn 0.000000 -1.000000 0.000000
vn 1.000000 0.000000 0.000000
vn 1.000000 0.000000 0.000000
vn 1.000000 0.000000 0.000000
vn 1.000000 0.000000 0.000000
vn -1.000000 0.000000 0.000000
vn -1.000000 0.000000 0.000000
vn -1.000000 0.000000 0.000000
vn -1.000000 0.000000 0.000000
s off
g pCube3
usemtl initialShadingGroup
f 25/37/65 26/38/66 28/40/67 27/39/68
f 27/39/69 28/40/70 30/42/71 29/41/72
f 29/41/73 30/42/74 32/44/75 31/43/76
f 31/43/77 32/44/78 26/46/79 25/45/80
f 26/38/81 32/47/82 30/48/83 28/40/84
f 31/49/85 25/37/86 27/39/87 29/50/88
