# This file uses centimeters as units for non-parametric coordinates.

mtllib Bat.mtl
g default
v 0.641235 8.111348 -0.308802
v 0.443748 8.111348 -0.556443
v 0.158372 8.111348 -0.693873
v -0.158372 8.111348 -0.693873
v -0.443748 8.111348 -0.556443
v -0.641235 8.111348 -0.308802
v -0.711717 8.111348 -0.000000
v -0.641235 8.111348 0.308802
v -0.443748 8.111348 0.556443
v -0.158372 8.111349 0.693873
v 0.158372 8.111349 0.693873
v 0.443748 8.111349 0.556443
v 0.641235 8.111348 0.308802
v 0.711717 8.111348 0.000000
v 0.654695 12.994489 -0.315284
v 0.453063 12.994489 -0.568122
v 0.161696 12.994489 -0.708437
v -0.161696 12.994489 -0.708437
v -0.453062 12.994489 -0.568123
v -0.654694 12.994489 -0.315284
v -0.726656 12.994489 -0.000000
v -0.654694 12.994489 0.315284
v -0.453063 12.994489 0.568122
v -0.161696 12.994489 0.708437
v 0.161696 12.994489 0.708437
v 0.453063 12.994489 0.568123
v 0.654694 12.994489 0.315284
v 0.726656 12.994489 0.000000
v 0.000000 13.091525 0.000000
v 0.271795 1.509123 -0.130889
v 0.188088 1.509123 -0.235854
v 0.067128 1.509122 -0.294106
v -0.067128 1.509123 -0.294106
v -0.188088 1.509123 -0.235855
v -0.271795 1.509122 -0.130889
v -0.301670 1.509123 0.000000
v -0.271795 1.509123 0.130890
v -0.188088 1.509123 0.235855
v -0.067128 1.509123 0.294107
v 0.067128 1.509123 0.294107
v 0.188088 1.509123 0.235855
v 0.271795 1.509122 0.130890
v 0.301670 1.509123 0.000000
v 0.182184 11.889049 0.798200
v -0.182184 11.889049 0.798200
v -0.510468 11.889049 0.640107
v -0.737648 11.889049 0.355232
v -0.818727 11.889049 -0.000000
v -0.737648 11.889049 -0.355233
v -0.510468 11.889049 -0.640107
v -0.182184 11.889049 -0.798200
v 0.182184 11.889049 -0.798200
v 0.510468 11.889049 -0.640107
v 0.737648 11.889049 -0.355232
v 0.818727 11.889049 0.000000
v 0.737648 11.889049 0.355232
v 0.510468 11.889049 0.640107
v 0.508041 1.451280 -0.244659
v 0.351575 1.451280 -0.440860
v 0.125476 1.451279 -0.549745
v -0.125476 1.451280 -0.549745
v -0.351575 1.451280 -0.440861
v -0.508040 1.451279 -0.244659
v -0.563883 1.451280 0.000000
v -0.508040 1.451280 0.244659
v -0.351575 1.451280 0.440861
v -0.125476 1.451280 0.549746
v 0.125476 1.451280 0.549746
v 0.351575 1.451280 0.440861
v 0.508040 1.451279 0.244660
v 0.563883 1.451280 -0.000000
v 0.508041 1.335708 -0.244659
v 0.351575 1.335708 -0.440860
v 0.125476 1.335707 -0.549745
v -0.125476 1.335708 -0.549745
v -0.351574 1.335708 -0.440861
v -0.508040 1.335707 -0.244659
v -0.563883 1.335709 0.000000
v -0.508041 1.335709 0.244659
v -0.351575 1.335708 0.440861
v -0.125476 1.335708 0.549746
v 0.125476 1.335709 0.549746
v 0.351575 1.335709 0.440861
v 0.508040 1.335707 0.244660
v 0.563883 1.335708 -0.000000
v 0.407847 1.307011 -0.196409
v 0.282240 1.307011 -0.353916
v 0.000000 1.307011 0.000000
v 0.100730 1.307011 -0.441327
v -0.100730 1.307011 -0.441327
v -0.282239 1.307011 -0.353917
v -0.407847 1.307011 -0.196409
v -0.452677 1.307012 0.000000
v -0.407848 1.307012 0.196409
v -0.282239 1.307011 0.353917
v -0.100730 1.307011 0.441328
v 0.100730 1.307012 0.441328
v 0.282239 1.307012 0.353917
v 0.407847 1.307011 0.196409
v 0.452677 1.307011 -0.000000
v 0.226531 13.043007 0.284061
v 0.080848 13.043007 0.354219
v -0.080848 13.043007 0.354219
v -0.226531 13.043007 0.284061
v -0.327347 13.043007 0.157642
v -0.363328 13.043007 -0.000000
v -0.327347 13.043007 -0.157642
v -0.226531 13.043007 -0.284061
v -0.080848 13.043007 -0.354219
v 0.080848 13.043007 -0.354219
v 0.226531 13.043007 -0.284061
v 0.327347 13.043007 -0.157642
v 0.363328 13.043007 0.000000
v 0.327347 13.043007 0.157642
v 0.445626 4.615651 -0.214602
v 0.308383 4.615651 -0.386700
v 0.110061 4.615650 -0.482207
v -0.110061 4.615651 -0.482207
v -0.308383 4.615651 -0.386700
v -0.445626 4.615650 -0.214602
v -0.494608 4.615651 -0.000000
v -0.445626 4.615651 0.214602
v -0.308383 4.615651 0.386700
v -0.110061 4.615651 0.482208
v 0.110061 4.615651 0.482207
v 0.308383 4.615651 0.386700
v 0.445626 4.615650 0.214603
v 0.494608 4.615651 0.000000
v 0.232405 2.653566 -0.291426
v 0.082944 2.653565 -0.363403
v -0.082944 2.653566 -0.363403
v -0.232404 2.653566 -0.291426
v -0.335834 2.653565 -0.161729
v -0.372748 2.653566 0.000000
v -0.335834 2.653566 0.161729
v -0.232405 2.653566 0.291426
v -0.082944 2.653566 0.363403
v 0.082944 2.653566 0.363403
v 0.232405 2.653566 0.291426
v 0.335834 2.653565 0.161729
v 0.372748 2.653566 0.000000
v 0.335834 2.653566 -0.161729
vt 0.640776 0.088456
vt 0.597420 0.034089
vt 0.534769 0.003918
vt 0.465231 0.003918
vt 0.402580 0.034089
vt 0.359224 0.088456
vt 0.343750 0.156250
vt 0.359224 0.224044
vt 0.402580 0.278411
vt 0.465231 0.308582
vt 0.534769 0.308582
vt 0.597420 0.278411
vt 0.640776 0.224044
vt 0.656250 0.156250
vt 0.375000 0.312500
vt 0.392857 0.312500
vt 0.410714 0.312500
vt 0.428571 0.312500
vt 0.446429 0.312500
vt 0.464286 0.312500
vt 0.482143 0.312500
vt 0.500000 0.312500
vt 0.517857 0.312500
vt 0.535714 0.312500
vt 0.553571 0.312500
vt 0.571428 0.312500
vt 0.589286 0.312500
vt 0.607143 0.312500
vt 0.625000 0.312500
vt 0.375000 0.688440
vt 0.392857 0.688440
vt 0.410714 0.688440
vt 0.428571 0.688440
vt 0.446429 0.688440
vt 0.464286 0.688440
vt 0.482143 0.688440
vt 0.500000 0.688440
vt 0.517857 0.688440
vt 0.535714 0.688440
vt 0.553571 0.688440
vt 0.571428 0.688440
vt 0.589286 0.688440
vt 0.607143 0.688440
vt 0.625000 0.688440
vt 0.640776 0.775956
vt 0.597420 0.721589
vt 0.534769 0.691418
vt 0.465231 0.691418
vt 0.402580 0.721589
vt 0.359224 0.775956
vt 0.343750 0.843750
vt 0.359224 0.911544
vt 0.402580 0.965911
vt 0.465231 0.996082
vt 0.534769 0.996082
vt 0.597420 0.965911
vt 0.640776 0.911544
vt 0.656250 0.843750
vt 0.500000 0.150000
vt 0.500000 0.837500
vt 0.597420 0.034089
vt 0.640776 0.088456
vt 0.534769 0.003918
vt 0.465231 0.003918
vt 0.402580 0.034089
vt 0.359224 0.088456
vt 0.343750 0.156250
vt 0.359224 0.224044
vt 0.402580 0.278411
vt 0.465231 0.308582
vt 0.534769 0.308582
vt 0.597420 0.278411
vt 0.640776 0.224044
vt 0.656250 0.156250
vt 0.553571 0.679475
vt 0.535714 0.679475
vt 0.517857 0.679475
vt 0.500000 0.679475
vt 0.482143 0.679475
vt 0.464286 0.679475
vt 0.446429 0.679475
vt 0.428571 0.679475
vt 0.410714 0.679475
vt 0.392857 0.679475
vt 0.625000 0.679475
vt 0.375000 0.679475
vt 0.607143 0.679475
vt 0.589286 0.679475
vt 0.571428 0.679475
vt 0.597420 0.034089
vt 0.640776 0.088456
vt 0.534769 0.003918
vt 0.465231 0.003918
vt 0.402580 0.034089
vt 0.359224 0.088456
vt 0.343750 0.156250
vt 0.359224 0.224044
vt 0.402580 0.278411
vt 0.465231 0.308582
vt 0.534769 0.308582
vt 0.597420 0.278411
vt 0.640776 0.224044
vt 0.656250 0.156250
vt 0.597420 0.034089
vt 0.640776 0.088456
vt 0.534769 0.003918
vt 0.465231 0.003918
vt 0.402580 0.034089
vt 0.359224 0.088456
vt 0.343750 0.156250
vt 0.359224 0.224044
vt 0.402580 0.278411
vt 0.465231 0.308582
vt 0.534769 0.308582
vt 0.597420 0.278411
vt 0.640776 0.224044
vt 0.656250 0.156250
vt 0.597420 0.034089
vt 0.640776 0.088456
vt 0.534769 0.003918
vt 0.465231 0.003918
vt 0.402580 0.034089
vt 0.359224 0.088456
vt 0.343750 0.156250
vt 0.359224 0.224044
vt 0.402580 0.278411
vt 0.465231 0.308582
vt 0.534769 0.308582
vt 0.597420 0.278411
vt 0.640776 0.224044
vt 0.656250 0.156250
vt 0.548710 0.779544
vt 0.517384 0.764459
vt 0.482616 0.764459
vt 0.451290 0.779544
vt 0.429612 0.806728
vt 0.421875 0.840625
vt 0.429612 0.874522
vt 0.451290 0.901706
vt 0.482616 0.916791
vt 0.517384 0.916791
vt 0.548710 0.901706
vt 0.570388 0.874522
vt 0.578125 0.840625
vt 0.570388 0.806728
vt 0.640776 0.088456
vt 0.597420 0.034089
vt 0.534769 0.003918
vt 0.465231 0.003918
vt 0.402580 0.034089
vt 0.359224 0.088456
vt 0.343750 0.156250
vt 0.359224 0.224044
vt 0.402580 0.278411
vt 0.465231 0.308582
vt 0.534769 0.308582
vt 0.597420 0.278411
vt 0.640776 0.224044
vt 0.656250 0.156250
vt 0.597420 0.034089
vt 0.534769 0.003918
vt 0.465231 0.003918
vt 0.402580 0.034089
vt 0.359224 0.088456
vt 0.343750 0.156250
vt 0.359224 0.224044
vt 0.402580 0.278411
vt 0.465231 0.308582
vt 0.534769 0.308582
vt 0.597420 0.278411
vt 0.640776 0.224044
vt 0.656250 0.156250
vt 0.640776 0.088456
vn 0.900169 -0.042120 -0.433499
vn 0.622937 -0.042120 -0.781137
vn 0.623486 -0.003452 -0.781827
vn 0.900964 -0.003452 -0.433881
vn 0.222324 -0.042120 -0.974063
vn 0.222520 -0.003452 -0.974922
vn -0.222323 -0.042120 -0.974063
vn -0.222520 -0.003452 -0.974922
vn -0.622936 -0.042120 -0.781138
vn -0.623486 -0.003452 -0.781827
vn -0.900169 -0.042120 -0.433499
vn -0.900963 -0.003452 -0.433881
vn -0.999112 -0.042120 -0.000000
vn -0.999994 -0.003452 -0.000000
vn -0.900169 -0.042120 0.433499
vn -0.900964 -0.003452 0.433881
vn -0.622937 -0.042120 0.781137
vn -0.623486 -0.003452 0.781827
vn -0.222324 -0.042120 0.974063
vn -0.222520 -0.003452 0.974922
vn 0.222324 -0.042120 0.974063
vn 0.222520 -0.003452 0.974922
vn 0.622936 -0.042120 0.781138
vn 0.623486 -0.003452 0.781827
vn 0.900169 -0.042120 0.433499
vn 0.900963 -0.003452 0.433881
vn 0.999112 -0.042120 0.000000
vn 0.999994 -0.003452 0.000000
vn 0.067777 -0.994074 -0.084989
vn 0.097938 -0.994074 -0.047166
vn -0.000000 -1.000000 0.000001
vn 0.024189 -0.994074 -0.105977
vn -0.024190 -0.994074 -0.105979
vn -0.067774 -0.994074 -0.084990
vn -0.097938 -0.994074 -0.047162
vn -0.108706 -0.994074 0.000004
vn -0.097941 -0.994074 0.047163
vn -0.067777 -0.994074 0.084986
vn -0.024188 -0.994074 0.105979
vn 0.024191 -0.994074 0.105979
vn 0.067775 -0.994074 0.084991
vn 0.097936 -0.994074 0.047165
vn 0.108703 -0.994074 -0.000002
vn 0.119255 0.991201 -0.057431
vn 0.082527 0.991201 -0.103485
vn 0.082527 0.991201 -0.103485
vn 0.119255 0.991201 -0.057430
vn 0.029454 0.991201 -0.129045
vn 0.029454 0.991201 -0.129045
vn -0.029454 0.991201 -0.129045
vn -0.029454 0.991201 -0.129045
vn -0.082527 0.991201 -0.103485
vn -0.082527 0.991201 -0.103486
vn -0.119255 0.991201 -0.057431
vn -0.119255 0.991201 -0.057431
vn -0.132363 0.991201 -0.000000
vn -0.132363 0.991201 -0.000000
vn -0.119255 0.991201 0.057431
vn -0.119255 0.991201 0.057430
vn -0.082527 0.991201 0.103485
vn -0.082527 0.991201 0.103485
vn -0.029454 0.991201 0.129044
vn -0.029454 0.991201 0.129045
vn 0.029454 0.991201 0.129045
vn 0.029454 0.991201 0.129045
vn 0.082527 0.991201 0.103485
vn 0.082527 0.991201 0.103486
vn 0.119255 0.991201 0.057431
vn 0.119255 0.991201 0.057431
vn 0.132363 0.991201 -0.000000
vn 0.132363 0.991201 -0.000000
vn 0.899236 -0.061988 -0.433049
vn 0.622291 -0.061988 -0.780328
vn 0.222093 -0.061988 -0.973053
vn -0.222093 -0.061988 -0.973053
vn -0.622291 -0.061988 -0.780328
vn -0.899236 -0.061988 -0.433050
vn -0.998077 -0.061988 -0.000000
vn -0.899236 -0.061988 0.433049
vn -0.622291 -0.061988 0.780328
vn -0.222093 -0.061988 0.973053
vn 0.222093 -0.061988 0.973053
vn 0.622291 -0.061988 0.780328
vn 0.899236 -0.061988 0.433050
vn 0.998077 -0.061988 0.000000
vn 0.221753 0.083002 0.971564
vn -0.221753 0.083002 0.971564
vn -0.621338 0.083002 0.779134
vn -0.897860 0.083002 0.432386
vn -0.996549 0.083002 -0.000000
vn -0.897860 0.083002 -0.432387
vn -0.621338 0.083002 -0.779134
vn -0.221753 0.083002 -0.971564
vn 0.221753 0.083002 -0.971564
vn 0.621339 0.083002 -0.779133
vn 0.897860 0.083002 -0.432386
vn 0.996549 0.083002 0.000000
vn 0.897860 0.083002 0.432387
vn 0.621338 0.083002 0.779134
vn 0.134308 0.976522 -0.168420
vn 0.194082 0.976523 -0.093466
vn 0.194082 0.976523 -0.093466
vn 0.134308 0.976522 -0.168420
vn 0.047935 0.976522 -0.210016
vn 0.047935 0.976522 -0.210016
vn -0.047933 0.976523 -0.210015
vn -0.047933 0.976522 -0.210015
vn -0.134311 0.976523 -0.168417
vn -0.134311 0.976523 -0.168417
vn -0.194084 0.976522 -0.093465
vn -0.194084 0.976522 -0.093464
vn -0.215415 0.976523 -0.000001
vn -0.215415 0.976523 -0.000001
vn -0.194082 0.976523 0.093465
vn -0.194082 0.976523 0.093465
vn -0.134309 0.976523 0.168418
vn -0.134309 0.976523 0.168418
vn -0.047934 0.976522 0.210015
vn -0.047934 0.976522 0.210015
vn 0.047935 0.976522 0.210015
vn 0.047935 0.976522 0.210015
vn 0.134311 0.976523 0.168417
vn 0.134311 0.976523 0.168417
vn 0.194084 0.976522 0.093465
vn 0.194084 0.976522 0.093464
vn 0.215415 0.976523 0.000001
vn 0.215415 0.976523 0.000001
vn 0.623490 -0.000000 -0.781831
vn 0.900969 0.000000 -0.433884
vn 0.900969 0.000000 -0.433884
vn 0.623491 -0.000000 -0.781830
vn 0.222523 -0.000001 -0.974927
vn 0.222523 -0.000001 -0.974927
vn -0.222521 -0.000000 -0.974928
vn -0.222523 -0.000000 -0.974928
vn -0.623491 -0.000000 -0.781830
vn -0.623490 -0.000000 -0.781831
vn -0.900967 -0.000001 -0.433887
vn -0.900968 -0.000001 -0.433886
vn -1.000000 0.000000 -0.000003
vn -1.000000 0.000000 0.000001
vn -0.900969 0.000001 0.433884
vn -0.900969 0.000001 0.433883
vn -0.623492 0.000000 0.781830
vn -0.623493 0.000000 0.781829
vn -0.222523 0.000000 0.974927
vn -0.222522 0.000000 0.974928
vn 0.222522 0.000001 0.974928
vn 0.222523 0.000001 0.974928
vn 0.623491 0.000000 0.781830
vn 0.623489 0.000000 0.781832
vn 0.900968 -0.000001 0.433885
vn 0.900968 -0.000001 0.433886
vn 1.000000 -0.000001 0.000001
vn 1.000000 -0.000001 -0.000000
vn 0.155791 -0.968279 -0.195356
vn 0.225123 -0.968280 -0.108414
vn 0.055600 -0.968279 -0.243605
vn -0.055602 -0.968279 -0.243607
vn -0.155788 -0.968279 -0.195359
vn -0.225122 -0.968280 -0.108415
vn -0.249870 -0.968279 0.000001
vn -0.225127 -0.968279 0.108414
vn -0.155792 -0.968280 0.195353
vn -0.055599 -0.968280 0.243603
vn 0.055603 -0.968279 0.243606
vn 0.155789 -0.968279 0.195358
vn 0.225120 -0.968281 0.108413
vn 0.249867 -0.968280 -0.000001
vn 0.000000 1.000000 0.000000
vn 0.222094 -0.061988 -0.973053
vn 0.622292 -0.061988 -0.780327
vn 0.622292 -0.061988 -0.780327
vn 0.222095 -0.061988 -0.973053
vn -0.222094 -0.061988 -0.973053
vn -0.222094 -0.061988 -0.973053
vn -0.622291 -0.061988 -0.780328
vn -0.622291 -0.061988 -0.780327
vn -0.899236 -0.061988 -0.433050
vn -0.899236 -0.061988 -0.433050
vn -0.998077 -0.061988 0.000000
vn -0.998077 -0.061988 -0.000000
vn -0.899236 -0.061988 0.433049
vn -0.899236 -0.061988 0.433049
vn -0.622292 -0.061988 0.780327
vn -0.622292 -0.061988 0.780327
vn -0.222093 -0.061988 0.973053
vn -0.222093 -0.061988 0.973053
vn 0.222094 -0.061988 0.973053
vn 0.222094 -0.061988 0.973053
vn 0.622291 -0.061988 0.780328
vn 0.622291 -0.061988 0.780328
vn 0.899236 -0.061988 0.433050
vn 0.899236 -0.061988 0.433050
vn 0.998077 -0.061988 -0.000000
vn 0.998077 -0.061988 -0.000000
vn 0.899236 -0.061988 -0.433050
vn 0.899236 -0.061988 -0.433050
s 1
g Bat
usemtl initialShadingGroup
f 1/15/1 2/16/2 53/84/3 54/86/4
f 2/16/2 3/17/5 52/83/6 53/84/3
f 3/17/5 4/18/7 51/82/8 52/83/6
f 4/18/7 5/19/9 50/81/10 51/82/8
f 5/19/9 6/20/11 49/80/12 50/81/10
f 6/20/11 7/21/13 48/79/14 49/80/12
f 7/21/13 8/22/15 47/78/16 48/79/14
f 8/22/15 9/23/17 46/77/18 47/78/16
f 9/23/17 10/24/19 45/76/20 46/77/18
f 10/24/19 11/25/21 44/75/22 45/76/20
f 11/25/21 12/26/23 57/89/24 44/75/22
f 12/26/23 13/27/25 56/88/26 57/89/24
f 13/27/25 14/28/27 55/87/28 56/88/26
f 14/28/27 1/29/1 54/85/4 55/87/28
s 2
f 87/118/29 86/119/30 88/59/31
f 89/120/32 87/118/29 88/59/31
f 90/121/33 89/120/32 88/59/31
f 91/122/34 90/121/33 88/59/31
f 92/123/35 91/122/34 88/59/31
f 93/124/36 92/123/35 88/59/31
f 94/125/37 93/124/36 88/59/31
f 95/126/38 94/125/37 88/59/31
f 96/127/39 95/126/38 88/59/31
f 97/128/40 96/127/39 88/59/31
f 98/129/41 97/128/40 88/59/31
f 99/130/42 98/129/41 88/59/31
f 100/131/43 99/130/42 88/59/31
f 86/119/30 100/131/43 88/59/31
s 3
f 15/57/44 16/56/45 111/142/46 112/143/47
f 16/56/45 17/55/48 110/141/49 111/142/46
f 17/55/48 18/54/50 109/140/51 110/141/49
f 18/54/50 19/53/52 108/139/53 109/140/51
f 19/53/52 20/52/54 107/138/55 108/139/53
f 20/52/54 21/51/56 106/137/57 107/138/55
f 21/51/56 22/50/58 105/136/59 106/137/57
f 22/50/58 23/49/60 104/135/61 105/136/59
f 23/49/60 24/48/62 103/134/63 104/135/61
f 24/48/62 25/47/64 102/133/65 103/134/63
f 25/47/64 26/46/66 101/132/67 102/133/65
f 26/46/66 27/45/68 114/145/69 101/132/67
f 27/45/68 28/58/70 113/144/71 114/145/69
f 28/58/70 15/57/44 112/143/47 113/144/71
s 1
f 2/2/2 1/1/1 115/146/72 116/147/73
f 3/3/5 2/2/2 116/147/73 117/148/74
f 4/4/7 3/3/5 117/148/74 118/149/75
f 5/5/9 4/4/7 118/149/75 119/150/76
f 6/6/11 5/5/9 119/150/76 120/151/77
f 7/7/13 6/6/11 120/151/77 121/152/78
f 8/8/15 7/7/13 121/152/78 122/153/79
f 9/9/17 8/8/15 122/153/79 123/154/80
f 10/10/19 9/9/17 123/154/80 124/155/81
f 11/11/21 10/10/19 124/155/81 125/156/82
f 12/12/23 11/11/21 125/156/82 126/157/83
f 13/13/25 12/12/23 126/157/83 127/158/84
f 14/14/27 13/13/25 127/158/84 128/159/85
f 1/1/1 14/14/27 128/159/85 115/146/72
f 45/76/20 44/75/22 25/40/86 24/39/87
f 46/77/18 45/76/20 24/39/87 23/38/88
f 47/78/16 46/77/18 23/38/88 22/37/89
f 48/79/14 47/78/16 22/37/89 21/36/90
f 49/80/12 48/79/14 21/36/90 20/35/91
f 50/81/10 49/80/12 20/35/91 19/34/92
f 51/82/8 50/81/10 19/34/92 18/33/93
f 52/83/6 51/82/8 18/33/93 17/32/94
f 53/84/3 52/83/6 17/32/94 16/31/95
f 54/86/4 53/84/3 16/31/95 15/30/96
f 55/87/28 54/85/4 15/44/96 28/43/97
f 56/88/26 55/87/28 28/43/97 27/42/98
f 57/89/24 56/88/26 27/42/98 26/41/99
f 44/75/22 57/89/24 26/41/99 25/40/86
s 4
f 31/61/100 30/62/101 58/91/102 59/90/103
f 32/63/104 31/61/100 59/90/103 60/92/105
f 33/64/106 32/63/104 60/92/105 61/93/107
f 34/65/108 33/64/106 61/93/107 62/94/109
f 35/66/110 34/65/108 62/94/109 63/95/111
f 36/67/112 35/66/110 63/95/111 64/96/113
f 37/68/114 36/67/112 64/96/113 65/97/115
f 38/69/116 37/68/114 65/97/115 66/98/117
f 39/70/118 38/69/116 66/98/117 67/99/119
f 40/71/120 39/70/118 67/99/119 68/100/121
f 41/72/122 40/71/120 68/100/121 69/101/123
f 42/73/124 41/72/122 69/101/123 70/102/125
f 43/74/126 42/73/124 70/102/125 71/103/127
f 30/62/101 43/74/126 71/103/127 58/91/102
s 5
f 59/90/128 58/91/129 72/105/130 73/104/131
f 60/92/132 59/90/128 73/104/131 74/106/133
f 61/93/134 60/92/132 74/106/133 75/107/135
f 62/94/136 61/93/134 75/107/135 76/108/137
f 63/95/138 62/94/136 76/108/137 77/109/139
f 64/96/140 63/95/138 77/109/139 78/110/141
f 65/97/142 64/96/140 78/110/141 79/111/143
f 66/98/144 65/97/142 79/111/143 80/112/145
f 67/99/146 66/98/144 80/112/145 81/113/147
f 68/100/148 67/99/146 81/113/147 82/114/149
f 69/101/150 68/100/148 82/114/149 83/115/151
f 70/102/152 69/101/150 83/115/151 84/116/153
f 71/103/154 70/102/152 84/116/153 85/117/155
f 58/91/129 71/103/154 85/117/155 72/105/130
s 2
f 73/104/156 72/105/157 86/119/30 87/118/29
f 74/106/158 73/104/156 87/118/29 89/120/32
f 75/107/159 74/106/158 89/120/32 90/121/33
f 76/108/160 75/107/159 90/121/33 91/122/34
f 77/109/161 76/108/160 91/122/34 92/123/35
f 78/110/162 77/109/161 92/123/35 93/124/36
f 79/111/163 78/110/162 93/124/36 94/125/37
f 80/112/164 79/111/163 94/125/37 95/126/38
f 81/113/165 80/112/164 95/126/38 96/127/39
f 82/114/166 81/113/165 96/127/39 97/128/40
f 83/115/167 82/114/166 97/128/40 98/129/41
f 84/116/168 83/115/167 98/129/41 99/130/42
f 85/117/169 84/116/168 99/130/42 100/131/43
f 72/105/157 85/117/169 100/131/43 86/119/30
s 3
f 102/133/65 101/132/67 29/60/170
f 103/134/63 102/133/65 29/60/170
f 104/135/61 103/134/63 29/60/170
f 105/136/59 104/135/61 29/60/170
f 106/137/57 105/136/59 29/60/170
f 107/138/55 106/137/57 29/60/170
f 108/139/53 107/138/55 29/60/170
f 109/140/51 108/139/53 29/60/170
f 110/141/49 109/140/51 29/60/170
f 111/142/46 110/141/49 29/60/170
f 112/143/47 111/142/46 29/60/170
f 113/144/71 112/143/47 29/60/170
f 114/145/69 113/144/71 29/60/170
f 101/132/67 114/145/69 29/60/170
s 6
f 130/161/171 129/160/172 31/61/173 32/63/174
f 131/162/175 130/161/171 32/63/174 33/64/176
f 132/163/177 131/162/175 33/64/176 34/65/178
f 133/164/179 132/163/177 34/65/178 35/66/180
f 134/165/181 133/164/179 35/66/180 36/67/182
f 135/166/183 134/165/181 36/67/182 37/68/184
f 136/167/185 135/166/183 37/68/184 38/69/186
f 137/168/187 136/167/185 38/69/186 39/70/188
f 138/169/189 137/168/187 39/70/188 40/71/190
f 139/170/191 138/169/189 40/71/190 41/72/192
f 140/171/193 139/170/191 41/72/192 42/73/194
f 141/172/195 140/171/193 42/73/194 43/74/196
f 142/173/197 141/172/195 43/74/196 30/62/198
f 129/160/172 142/173/197 30/62/198 31/61/173
g default
v 0.445626 4.615651 -0.213476
v 0.308383 4.615651 -0.385574
v 0.110061 4.615650 -0.481081
v -0.110061 4.615651 -0.481081
v -0.308383 4.615651 -0.385574
v -0.445626 4.615650 -0.213476
v -0.494608 4.615651 0.001126
v -0.445626 4.615651 0.215729
v -0.308383 4.615651 0.387827
v -0.110061 4.615651 0.483334
v 0.110061 4.615651 0.483334
v 0.308383 4.615651 0.387827
v 0.445626 4.615650 0.215729
v 0.494608 4.615651 0.001126
v 0.232405 2.653566 -0.290300
v 0.082944 2.653565 -0.362276
v -0.082944 2.653566 -0.362276
v -0.232404 2.653566 -0.290300
v -0.335834 2.653565 -0.160603
v -0.372748 2.653566 0.001126
v -0.335834 2.653566 0.162856
v -0.232405 2.653566 0.292553
v -0.082944 2.653566 0.364529
v 0.082944 2.653566 0.364529
v 0.232405 2.653566 0.292553
v 0.335834 2.653565 0.162856
v 0.372748 2.653566 0.001126
v 0.335834 2.653566 -0.160603
vt 0.640776 0.088456
vt 0.597420 0.034089
vt 0.534769 0.003918
vt 0.465231 0.003918
vt 0.402580 0.034089
vt 0.359224 0.088456
vt 0.343750 0.156250
vt 0.359224 0.224044
vt 0.402580 0.278411
vt 0.465231 0.308582
vt 0.534769 0.308582
vt 0.597420 0.278411
vt 0.640776 0.224044
vt 0.656250 0.156250
vt 0.597420 0.034089
vt 0.534769 0.003918
vt 0.465231 0.003918
vt 0.402580 0.034089
vt 0.359224 0.088456
vt 0.343750 0.156250
vt 0.359224 0.224044
vt 0.402580 0.278411
vt 0.465231 0.308582
vt 0.534769 0.308582
vt 0.597420 0.278411
vt 0.640776 0.224044
vt 0.656250 0.156250
vt 0.640776 0.088456
vn 0.622291 -0.061988 -0.780327
vn 0.899236 -0.061988 -0.433050
vn 0.899236 -0.061988 -0.433050
vn 0.622291 -0.061988 -0.780327
vn 0.222094 -0.061988 -0.973053
vn 0.222094 -0.061988 -0.973053
vn -0.222094 -0.061988 -0.973053
vn -0.222094 -0.061988 -0.973053
vn -0.622291 -0.061988 -0.780328
vn -0.622291 -0.061988 -0.780328
vn -0.899236 -0.061988 -0.433050
vn -0.899236 -0.061988 -0.433050
vn -0.998077 -0.061988 -0.000000
vn -0.998077 -0.061988 -0.000000
vn -0.899236 -0.061988 0.433049
vn -0.899236 -0.061988 0.433049
vn -0.622292 -0.061988 0.780327
vn -0.622292 -0.061988 0.780327
vn -0.222093 -0.061988 0.973053
vn -0.222093 -0.061988 0.973053
vn 0.222094 -0.061988 0.973053
vn 0.222094 -0.061988 0.973053
vn 0.622291 -0.061988 0.780328
vn 0.622291 -0.061988 0.780328
vn 0.899236 -0.061988 0.433050
vn 0.899236 -0.061988 0.433050
vn 0.998077 -0.061988 -0.000000
vn 0.998077 -0.061988 0.000000
s 1
g BatHandle
usemtl initialShadingGroup
f 144/175/199 143/174/200 170/201/201 157/188/202
f 145/176/203 144/175/199 157/188/202 158/189/204
f 146/177/205 145/176/203 158/189/204 159/190/206
f 147/178/207 146/177/205 159/190/206 160/191/208
f 148/179/209 147/178/207 160/191/208 161/192/210
f 149/180/211 148/179/209 161/192/210 162/193/212
f 150/181/213 149/180/211 162/193/212 163/194/214
f 151/182/215 150/181/213 163/194/214 164/195/216
f 152/183/217 151/182/215 164/195/216 165/196/218
f 153/184/219 152/183/217 165/196/218 166/197/220
f 154/185/221 153/184/219 166/197/220 167/198/222
f 155/186/223 154/185/221 167/198/222 168/199/224
f 156/187/225 155/186/223 168/199/224 169/200/226
f 143/174/200 156/187/225 169/200/226 170/201/201
